<svg width="16" height="16" viewBox="0 0 16 16" fill="none" xmlns="http://www.w3.org/2000/svg">
<path d="M3.05011 3.04999C3.23764 2.86252 3.49195 2.7572 3.75711 2.7572C4.02227 2.7572 4.27658 2.86252 4.46411 3.04999L8.00011 6.58599L11.5361 3.04999C11.7247 2.86783 11.9773 2.76704 12.2395 2.76931C12.5017 2.77159 12.7525 2.87676 12.9379 3.06217C13.1233 3.24758 13.2285 3.49839 13.2308 3.76059C13.2331 4.02278 13.1323 4.27539 12.9501 4.46399L9.41411 7.99999L12.9501 11.536C13.1323 11.7246 13.2331 11.9772 13.2308 12.2394C13.2285 12.5016 13.1233 12.7524 12.9379 12.9378C12.7525 13.1232 12.5017 13.2284 12.2395 13.2307C11.9773 13.2329 11.7247 13.1321 11.5361 12.95L8.00011 9.41399L4.46411 12.95C4.27551 13.1321 4.02291 13.2329 3.76071 13.2307C3.49851 13.2284 3.2477 13.1232 3.06229 12.9378C2.87688 12.7524 2.77172 12.5016 2.76944 12.2394C2.76716 11.9772 2.86795 11.7246 3.05011 11.536L6.58611 7.99999L3.05011 4.46399C2.86264 4.27646 2.75732 4.02215 2.75732 3.75699C2.75732 3.49182 2.86264 3.23752 3.05011 3.04999V3.04999Z" fill="white"/>
</svg>
